<svg xmlns="http://www.w3.org/2000/svg" width="21" height="13" viewBox="0 0 21 13">
    <g fill="#C0C3C7" fill-rule="nonzero">
        <path d="M.95 1.035c.55.29 8.19 4.455 8.475 4.605.285.15.575.22 1.025.22.45 0 .74-.07 1.025-.22.285-.15 7.925-4.315 8.475-4.605.205-.105.55-.295.625-.51.13-.38-.01-.525-.565-.525H.89C.335 0 .195.15.325.525c.075.22.42.405.625.51z"/>
        <path d="M20.385 1.26c-.41.21-4.09 2.83-6.525 4.405l4.11 4.625c.1.1.145.22.09.28-.06.055-.19.025-.295-.07l-4.93-4.16c-.745.48-1.27.81-1.36.86-.385.195-.655.22-1.025.22-.37 0-.64-.025-1.025-.22-.095-.05-.615-.38-1.36-.86l-4.93 4.16c-.1.1-.235.13-.295.07-.06-.055-.015-.18.085-.28L7.03 5.665C4.595 4.09.875 1.47.465 1.26.025 1.035 0 1.3 0 1.505v10.25C0 12.22.685 12.8 1.175 12.8h18.55c.49 0 1.075-.585 1.075-1.045V1.505c0-.21.03-.47-.415-.245z"/>
    </g>
</svg>
