<svg xmlns="http://www.w3.org/2000/svg" width="48" height="48" viewBox="0 0 48 48">
    <defs>
        <linearGradient id="a" x1="50%" x2="50%" y1="0%" y2="87.764%">
            <stop offset="0%" stop-color="#FFC452"/>
            <stop offset="97.792%" stop-color="#FFB526"/>
        </linearGradient>
    </defs>
    <g fill="none" fill-rule="evenodd">
        <path fill="url(#a)" d="M13 4a9 9 0 1 1 0 18 9 9 0 1 1 0-18" transform="translate(15 7)"/>
        <g fill="#FBB327" transform="translate(27 7)">
            <rect width="2" height="3.049" rx="1"/>
            <rect width="2" height="3.049" y="22.951" rx="1"/>
        </g>
        <g fill="#FBB327" transform="rotate(30 1.438 66.883)">
            <rect width="2" height="3.049" rx="1"/>
            <rect width="2" height="3.049" y="22.951" rx="1"/>
        </g>
        <g fill="#FBB327" transform="rotate(60 8.438 39.883)">
            <rect width="2" height="3.049" rx="1"/>
            <rect width="2" height="3.049" y="22.951" rx="1"/>
        </g>
        <g fill="#FBB327" transform="rotate(90 11 30)">
            <rect width="2" height="3.049" rx="1"/>
            <rect width="2" height="3.049" y="22.951" rx="1"/>
        </g>
        <g fill="#FBB327" transform="rotate(120 12.48 24.294)">
            <rect width="2" height="3.049" rx="1"/>
            <rect width="2" height="3.049" y="22.951" rx="1"/>
        </g>
        <g fill="#FBB327" transform="rotate(150 13.562 20.117)">
            <rect width="2" height="3.049" rx="1"/>
            <rect width="2" height="3.049" y="22.951" rx="1"/>
        </g>
        <path fill="#DADADA" d="M20 38a1 1 0 1 1 0 2h-2a1 1 0 1 1 0-2h2zm11 0a1 1 0 1 1 0 2h-6a1 1 0 1 1 0-2h6zm10.5-9a1.5 1.5 0 0 1 0 3H32a1 1 0 1 0 0 2h4a1 1 0 1 1 0 2H13a1 1 0 1 1 0-2h3a1 1 0 1 0 0-2H6.5a1.5 1.5 0 1 1 0-3H12a1 1 0 1 0 0-2H9.5a1.5 1.5 0 1 1 0-3h31a1.5 1.5 0 0 1 0 3H36a1 1 0 1 0 0 2h5.5z"/>
    </g>
</svg>
