<svg xmlns="http://www.w3.org/2000/svg" xmlns:xlink="http://www.w3.org/1999/xlink" width="48" height="48" viewBox="0 0 48 48">
    <defs>
        <path id="a" d="M4.25-.438a.75.75 0 0 1 .75.75v12.5a.75.75 0 1 1-1.5 0V.312a.75.75 0 0 1 .75-.75z"/>
        <rect id="b" width="1.5" height="14" x="7.366" y="-.438" rx=".75"/>
        <rect id="c" width="1.5" height="14" x="11.366" y="-.438" rx=".75"/>
        <path id="d" d="M32.144 31c1.579-.642 3.784-1.528 4.282-1.817a1.604 1.604 0 0 0 .583-2.185 1.587 1.587 0 0 0-2.176-.586c-.497.288-2.363 1.764-3.705 2.817.235-1.695.574-4.052.574-4.629 0-.883-.713-1.6-1.593-1.6-.879 0-1.592.717-1.592 1.6 0 .577.338 2.934.574 4.628-1.343-1.052-3.204-2.526-3.701-2.814a1.589 1.589 0 0 0-2.176.586c-.44.766-.18 1.744.584 2.186.496.288 2.695 1.172 4.273 1.813-1.578.642-3.774 1.525-4.271 1.813a1.604 1.604 0 0 0-.582 2.186 1.587 1.587 0 0 0 2.174.585c.497-.287 2.356-1.758 3.699-2.81-.236 1.693-.574 4.051-.574 4.627 0 .884.713 1.6 1.592 1.6.88 0 1.593-.716 1.593-1.6 0-.576-.339-2.934-.574-4.627 1.342 1.052 3.204 2.525 3.701 2.813.762.442 1.737.18 2.176-.586.44-.766.179-1.743-.583-2.186-.497-.288-2.7-1.172-4.278-1.815z"/>
    </defs>
    <g fill="none" fill-rule="evenodd">
        <g transform="rotate(30 -37.9 35.856)">
            <use fill="#78A0EF" xlink:href="#a"/>
            <use fill="#73B0FF" xlink:href="#a"/>
        </g>
        <g transform="rotate(30 -34.035 35.856)">
            <use fill="#78A0EF" xlink:href="#b"/>
            <use fill="#73B0FF" xlink:href="#b"/>
        </g>
        <g transform="rotate(30 -30.035 35.856)">
            <use fill="#78A0EF" xlink:href="#c"/>
            <use fill="#73B0FF" xlink:href="#c"/>
        </g>
        <g fill="#DADADA">
            <path d="M33.851 17c-.497-1.872-2.188-3.25-4.196-3.25-.412 0-.81.058-1.188.166C27.098 11.015 24.09 9 20.6 9c-4.735 0-8.581 3.707-8.654 8.306A7 7 0 0 0 14 31h20a7 7 0 0 0 0-14h-.149z"/>
        </g>
        <g>
            <use fill="#78A0EF" xlink:href="#d"/>
            <use fill="#73B0FF" xlink:href="#d"/>
        </g>
    </g>
</svg>
