<svg xmlns="http://www.w3.org/2000/svg" width="48" height="48" viewBox="0 0 48 48">
    <defs>
        <linearGradient id="a" x1="50%" x2="50%" y1="0%" y2="87.764%">
            <stop offset="0%" stop-color="#FFC452"/>
            <stop offset="97.792%" stop-color="#FFB526"/>
        </linearGradient>
    </defs>
    <g fill="none" fill-rule="evenodd">
        <path fill="url(#a)" d="M21 4a9 9 0 1 1 0 18 9 9 0 1 1 0-18" transform="translate(7 7)"/>
        <g fill="#FBB327" transform="translate(27 7)">
            <rect width="2" height="3.049" rx="1"/>
            <rect width="2" height="3.049" y="22.951" rx="1"/>
        </g>
        <g fill="#FBB327" transform="rotate(30 1.438 66.883)">
            <rect width="2" height="3.049" rx="1"/>
            <rect width="2" height="3.049" y="22.951" rx="1"/>
        </g>
        <g fill="#FBB327" transform="rotate(60 8.438 39.883)">
            <rect width="2" height="3.049" rx="1"/>
            <rect width="2" height="3.049" y="22.951" rx="1"/>
        </g>
        <g fill="#FBB327" transform="rotate(90 11 30)">
            <rect width="2" height="3.049" rx="1"/>
            <rect width="2" height="3.049" y="22.951" rx="1"/>
        </g>
        <g fill="#FBB327" transform="rotate(120 12.48 24.294)">
            <rect width="2" height="3.049" rx="1"/>
            <rect width="2" height="3.049" y="22.951" rx="1"/>
        </g>
        <g fill="#FBB327" transform="rotate(150 13.562 20.117)">
            <rect width="2" height="3.049" rx="1"/>
            <rect width="2" height="3.049" y="22.951" rx="1"/>
        </g>
        <path fill="#DADADA" d="M33.998 25c-.075-2.36-1.991-4.25-4.343-4.25-.412 0-.81.058-1.188.166C27.098 18.015 24.09 16 20.6 16c-4.78 0-8.655 3.778-8.655 8.437 0 .29.015.575.044.856A7 7 0 0 0 14 39h20.001a7 7 0 0 0 0-14h-.002z"/>
    </g>
</svg>
