<svg xmlns="http://www.w3.org/2000/svg" width="48" height="48" viewBox="0 0 48 48">
    <g fill="#FBB327" fill-rule="evenodd">
        <path d="M24 14c5.523 0 10 4.477 10 10s-4.477 10-10 10-10-4.477-10-10 4.477-10 10-10"/>
        <g transform="translate(23 10)">
            <rect width="2" height="3.049" rx="1"/>
            <rect width="2" height="3.049" y="24.951" rx="1"/>
        </g>
        <g transform="rotate(30 -6.16 61.919)">
            <rect width="2" height="3.049" rx="1"/>
            <rect width="2" height="3.049" y="24.951" rx="1"/>
        </g>
        <g transform="rotate(60 3.84 38.919)">
            <rect width="2" height="3.049" rx="1"/>
            <rect width="2" height="3.049" y="24.951" rx="1"/>
        </g>
        <g transform="rotate(90 7.5 30.5)">
            <rect width="2" height="3.049" rx="1"/>
            <rect width="2" height="3.049" y="24.951" rx="1"/>
        </g>
        <g transform="rotate(120 9.613 25.64)">
            <rect width="2" height="3.049" rx="1"/>
            <rect width="2" height="3.049" y="24.951" rx="1"/>
        </g>
        <g transform="rotate(150 11.16 22.081)">
            <rect width="2" height="3.049" rx="1"/>
            <rect width="2" height="3.049" y="24.951" rx="1"/>
        </g>
    </g>
</svg>
