<svg xmlns="http://www.w3.org/2000/svg" xmlns:xlink="http://www.w3.org/1999/xlink" width="250" height="200"><circle fill="#DE5833" cx="127.332" cy="78.966" r="51.15"/><path fill="#4C4C4C" d="M22.564 180.574v-24.598h8.914c8.487 0 12.352 6.234 12.352 12.031 0 6.256-3.819 12.562-12.352 12.562l-8.914.005zm2.834-2.834h6.08c6.575 0 9.518-4.904 9.518-9.766 0-4.467-2.979-9.271-9.518-9.271h-6.08v19.037zM55.055 180.857c-4.554 0-7.497-3.137-7.497-7.992v-9.551h2.657v9.516c0 3.496 2.034 5.584 5.442 5.584 3.195-.035 5.513-2.488 5.513-5.832v-9.268h2.657v17.26h-2.414l-.152-3.002-.412.518c-1.432 1.801-3.381 2.732-5.794 2.767zM76.786 180.893c-4.49 0-9.02-2.771-9.02-8.949 0-5.354 3.625-8.947 9.02-8.947 2.361 0 4.436.842 6.168 2.502l-1.67 1.732c-1.175-1.096-2.781-1.721-4.427-1.721-3.768 0-6.399 2.646-6.399 6.434 0 4.445 3.196 6.438 6.364 6.438 1.782 0 3.4-.636 4.573-1.791l1.736 1.736c-1.747 1.702-3.881 2.566-6.345 2.566zM97.683 180.574l-8.435-8.435v8.435h-2.622v-24.562h2.622v14.857l7.373-7.555h3.437l-8.134 8.134 9.127 9.091v.035zM104.317 180.574v-24.598h8.913c8.487 0 12.354 6.234 12.354 12.031 0 6.256-3.815 12.562-12.354 12.562l-8.913.005zm2.833-2.834h6.08c6.575 0 9.519-4.904 9.519-9.766 0-4.467-2.979-9.271-9.519-9.271h-6.08v19.037zM136.807 180.857c-4.556 0-7.496-3.137-7.496-7.992v-9.551h2.656v9.516c0 3.496 2.034 5.584 5.441 5.584 3.189-.035 5.514-2.488 5.514-5.832v-9.268h2.656v17.26h-2.416l-.15-3.002-.412.518c-1.432 1.801-3.381 2.732-5.793 2.767zM158.539 180.893c-4.49 0-9.021-2.771-9.021-8.949 0-5.354 3.625-8.947 9.021-8.947 2.359 0 4.438.842 6.168 2.502l-1.67 1.732c-1.176-1.096-2.781-1.721-4.428-1.721-3.77 0-6.398 2.646-6.398 6.434 0 4.445 3.197 6.438 6.363 6.438 1.781 0 3.4-.636 4.572-1.791l1.686 1.688-.088.091.049.049c-1.731 1.64-3.832 2.474-6.254 2.474zM179.436 180.574L171 172.139v8.435h-2.621v-24.562H171v14.857l7.373-7.555h3.438l-8.133 8.134 9.125 9.091v.035zM196.719 181.035c-9.457 0-12.812-6.75-12.812-12.529-.021-3.765 1.256-7.125 3.584-9.467 2.293-2.305 5.473-3.523 9.192-3.523 3.366 0 6.537 1.279 8.938 3.604l-1.604 1.869c-1.89-1.763-4.685-2.853-7.33-2.853-6.854 0-9.979 5.375-9.979 10.367 0 4.908 3.104 9.873 10.051 9.873 2.527 0 4.886-.865 6.812-2.518l.091-.072v-6.062h-7.729v-2.479h10.276v9.646c-2.654 2.8-5.746 4.144-9.49 4.144zM218.453 180.893c-5.188 0-8.949-3.748-8.949-8.914 0-5.246 3.77-9.055 8.949-9.055 5.289 0 8.982 3.723 8.982 9.055.001 5.166-3.777 8.914-8.982 8.914zm.033-15.561c-3.727 0-6.326 2.734-6.326 6.646 0 3.729 2.646 6.436 6.293 6.436 3.709 0 6.326-2.646 6.361-6.434 0-3.853-2.66-6.648-6.328-6.648z"/><g><defs><path id="a" d="M178.684 78.824c0 28.316-23.035 51.354-51.354 51.354-28.313 0-51.348-23.039-51.348-51.354 0-28.313 23.036-51.349 51.348-51.349 28.318 0 51.354 23.036 51.354 51.349z"/></defs><clipPath id="b"><use xlink:href="#a" overflow="visible"/></clipPath><g clip-path="url(#b)"><path fill="#D5D7D8" d="M148.293 155.158c-1.801-8.285-12.262-27.039-16.23-34.969-3.965-7.932-7.938-19.11-6.129-26.322.328-1.312-3.436-11.308-2.354-12.015 8.416-5.489 10.632.599 14.002-1.862 1.734-1.273 4.09 1.047 4.689-1.06 2.158-7.567-3.006-20.76-8.771-26.526-1.885-1.879-4.771-3.06-8.03-3.687-1.254-1.713-3.275-3.36-6.138-4.879-3.188-1.697-10.121-3.938-13.717-4.535-2.492-.41-3.055.287-4.119.461.992.088 5.699 2.414 6.615 2.549-.916.619-3.607-.028-5.324.742-.865.392-1.512 1.877-1.506 2.58 4.91-.496 12.574-.016 17.1 2-3.602.41-9.08.867-11.436 2.105-6.848 3.608-9.873 12.035-8.07 22.133 1.804 10.075 9.738 46.85 12.262 59.129 2.525 12.264-5.408 20.189-10.455 22.354l5.408.363-1.801 3.967c6.484.719 13.695-1.439 13.695-1.439-1.438 3.965-11.176 5.412-11.176 5.412s4.691 1.438 12.258-1.447c7.578-2.883 12.263-4.688 12.263-4.688l3.604 9.373 6.854-6.847 2.885 7.211c.014-.001 5.424-1.808 3.621-10.103z"/><path fill="#FFF" d="M150.471 153.477c-1.795-8.289-12.256-27.043-16.228-34.979-3.97-7.936-7.935-19.112-6.13-26.321.335-1.309.341-6.668 1.429-7.379 8.411-5.494 7.812-.184 11.187-2.645 1.74-1.271 3.133-2.806 3.738-4.912 2.164-7.572-3.006-20.76-8.773-26.529-1.879-1.879-4.768-3.062-8.023-3.686-1.252-1.718-3.271-3.361-6.13-4.882-5.391-2.862-12.074-4.006-18.266-2.883.99.09 3.256 2.138 4.168 2.273-1.381.936-5.053.815-5.029 2.896 4.916-.492 10.303.285 14.834 2.297-3.602.41-6.955 1.3-9.311 2.543-6.854 3.603-8.656 10.812-6.854 20.914 1.807 10.097 9.742 46.873 12.256 59.126 2.527 12.26-5.402 20.188-10.449 22.354l5.408.359-1.801 3.973c6.484.721 13.695-1.439 13.695-1.439-1.438 3.974-11.176 5.406-11.176 5.406s4.686 1.439 12.258-1.445a3526.959 3526.959 0 0 0 12.269-4.688l3.604 9.373L144 156.35l2.891 7.215c-.016.007 5.388-1.797 3.58-10.088z"/><path fill="#2D4F8E" d="M109.021 70.691a3.785 3.785 0 0 1 3.789-3.787 3.785 3.785 0 0 1 3.785 3.787 3.784 3.784 0 0 1-3.785 3.786 3.783 3.783 0 0 1-3.789-3.786z"/><path fill="#FFF" d="M113.507 69.429a.982.982 0 1 1 1.964 0 .985.985 0 0 1-.984.984.984.984 0 0 1-.98-.984z"/><path fill="#2D4F8E" d="M134.867 68.445a3.255 3.255 0 0 1 3.252-3.25 3.254 3.254 0 1 1-3.252 3.25z"/><path fill="#FFF" d="M138.725 67.363c0-.463.379-.843.838-.843.479 0 .846.38.846.843a.834.834 0 0 1-.846.842.84.84 0 0 1-.838-.842z"/><linearGradient id="c" gradientUnits="userSpaceOnUse" x1="1893.318" y1="-2381.979" x2="1901.887" y2="-2381.979" gradientTransform="matrix(1 0 0 -1 -1788 -2321)"><stop offset=".006" stop-color="#6176b9"/><stop offset=".691" stop-color="#394a9f"/></linearGradient><path fill="url(#c)" d="M113.886 59.718s-2.854-1.291-5.629.453c-2.77 1.742-2.668 3.523-2.668 3.523s-1.473-3.283 2.453-4.892c3.93-1.609 5.844.916 5.844.916z"/><linearGradient id="d" gradientUnits="userSpaceOnUse" x1="1920.273" y1="-2379.371" x2="1928.078" y2="-2379.371" gradientTransform="matrix(1 0 0 -1 -1788 -2321)"><stop offset=".006" stop-color="#6176b9"/><stop offset=".691" stop-color="#394a9f"/></linearGradient><path fill="url(#d)" d="M140.078 59.458s-2.051-1.172-3.643-1.152c-3.271.043-4.162 1.488-4.162 1.488s.549-3.445 4.732-2.754c2.268.377 3.073 2.418 3.073 2.418z"/></g><path fill="#FDD20A" d="M124.4 85.295c.379-2.291 6.299-6.625 10.491-6.887 4.201-.265 5.51-.205 9.01-1.043 3.51-.838 12.535-3.088 15.033-4.242 2.504-1.156 13.104.572 5.631 4.738-3.232 1.809-11.943 5.131-18.172 6.987-6.219 1.861-9.99-1.776-12.06 1.281-1.646 2.432-.334 5.762 7.099 6.453 10.037.93 19.66-4.521 20.719-1.625 1.064 2.895-8.625 6.508-14.525 6.623-5.893.111-17.771-3.896-19.555-5.137-1.786-1.238-4.165-4.13-3.671-7.148z"/><g><path fill="#65BC46" d="M128.943 115.592s-14.102-7.521-14.332-4.47c-.238 3.056 0 15.509 1.643 16.451 1.646.938 13.396-6.108 13.396-6.108l-.707-5.873zM134.346 115.118s9.635-7.285 11.754-6.815c2.111.479 2.582 15.51.701 16.229-1.881.69-12.908-3.813-12.908-3.813l.453-5.601z"/><path fill="#43A244" d="M125.529 116.389c0 4.932-.709 7.049 1.41 7.519 2.109.473 6.104 0 7.518-.938 1.41-.938.232-7.279-.232-8.465-.477-1.174-8.696-.232-8.696 1.884z"/><path fill="#65BC46" d="M126.426 115.292c0 4.933-.707 7.05 1.409 7.519 2.106.479 6.104 0 7.519-.938 1.41-.941.231-7.279-.236-8.466-.473-1.173-8.692-.227-8.692 1.885z"/></g></g><circle fill="none" stroke="#DE5833" stroke-width="5" stroke-miterlimit="10" cx="127.331" cy="78.965" r="57.5"/></svg>
