<svg xmlns="http://www.w3.org/2000/svg" width="24" height="24" viewBox="0 0 24 24">
    <g fill="none" fill-rule="nonzero">
        <circle cx="12" cy="12" r="12" fill="#F79826"/>
        <path fill="#FEFEFD" d="M16.968 14.904c0 .024-.012.036-.012.06-.012.024-.012.048-.024.072 0 .024-.012.048-.012.06-.024.06-.036.108-.06.168a1.115 1.115 0 0 1-.048.156c-.144.348-.288.684-.528.972-.516.648-1.224.912-2.016.972-.66.048-1.308-.024-1.956-.144-.144-.024-.168.024-.192.132-.156.624-.312 1.248-.456 1.872-.036.132-.072.156-.204.12-.336-.096-.672-.18-1.02-.252-.12-.024-.132-.072-.108-.18l.468-1.872c.036-.12 0-.156-.108-.18a8.015 8.015 0 0 1-.768-.204c-.12-.036-.144 0-.168.108-.156.624-.312 1.236-.456 1.86-.036.144-.084.168-.216.12a14.344 14.344 0 0 0-.972-.24c-.132-.024-.18-.072-.144-.216.168-.624.312-1.248.468-1.872.024-.108.012-.156-.108-.18l-2.436-.612c-.18-.048 0-.132-.012-.192.18-.396.36-.792.528-1.2.048-.12.096-.132.204-.096.276.072.552.144.828.204.324.06.528-.072.612-.408.372-1.5.756-3.012 1.128-4.512.096-.408.204-.816.3-1.224a.648.648 0 0 0-.372-.78c-.312-.144-.648-.192-.972-.264-.144-.036-.192-.072-.156-.228.108-.372.204-.744.276-1.128.024-.108.096-.072.168-.06.492.12.984.24 1.464.372.312.072.612.156.924.24.072.024.12.024.144-.084.18-.624.324-1.272.48-1.896.036-.132.072-.156.204-.12.336.096.66.168.996.252.132.024.144.084.12.204-.156.612-.3 1.212-.456 1.824-.024.108-.012.144.096.168l.792.18c.108.024.144 0 .168-.108.144-.612.3-1.212.456-1.824.024-.108.06-.156.18-.12.336.096.672.18 1.02.252.132.024.144.084.12.204-.156.612-.3 1.236-.468 1.848-.036.12-.012.156.108.204.66.24 1.296.528 1.824 1.008.108.108.216.228.324.336.024.036.048.072.072.096.024.036.048.072.06.108.036.072.072.156.108.228.036.084.06.18.096.264 0 .024.012.048.012.072.012.036.012.072.024.096 0 .024 0 .048.012.072.036.432-.036.852-.144 1.272-.192.468-.456.852-.912 1.104-.192.108-.396.18-.648.252.72.384 1.26.888 1.404 1.692 0 .024.012.06.012.084 0 .048.012.084.012.132v.264c0 .06 0 .108-.012.168-.012.048-.012.084-.024.132 0 .024 0 .048-.012.072.012.024 0 .072-.012.12zm-4.332.564c.192 0 .372 0 .564-.036.528-.108.924-.348 1.08-.912.144-.552-.048-.984-.468-1.332a2.943 2.943 0 0 0-.72-.432c-.648-.288-1.332-.432-2.028-.588-.084-.024-.12 0-.132.084-.216.9-.444 1.8-.672 2.7-.012.072-.012.096.06.12.756.18 1.524.396 2.316.396zm.576-4.296c.168.012.336-.012.492-.036.72-.12 1.152-.756.984-1.452-.108-.432-.42-.684-.78-.876-.552-.3-1.164-.432-1.764-.576-.216-.048-.216-.048-.264.168-.192.756-.384 1.512-.564 2.268-.012.06-.072.132.048.168.612.156 1.212.324 1.848.336z"/>
    </g>
</svg>
