<svg xmlns="http://www.w3.org/2000/svg" width="24" height="24" viewBox="0 0 24 24">
    <g fill="none" fill-rule="nonzero">
        <circle cx="12" cy="12" r="12" fill="#8DC351"/>
        <path fill="#FEFEFD" d="M17.788 11.797c.012.02.008.037.02.058.001.027.013.047.015.074.012.02.014.048.02.058.009.064.022.112.032.176.013.047.027.095.036.159.05.373.093.736.029 1.105-.123.82-.604 1.402-1.26 1.85-.548.372-1.145.633-1.766.854-.137.05-.134.104-.1.21.177.618.353 1.237.54 1.85.036.131.016.17-.116.205-.339.085-.672.18-1.01.292-.115.039-.15.003-.183-.102l-.53-1.855c-.03-.122-.079-.135-.184-.102-.259.08-.507.154-.767.207-.122.029-.125.072-.092.178.177.618.348 1.226.535 1.838.041.143.012.188-.127.212-.328.08-.645.179-.961.279-.127.045-.192.027-.233-.116-.167-.624-.354-1.236-.53-1.855-.034-.105-.068-.14-.184-.102-.809.232-1.607.457-2.416.688-.18.049-.066-.114-.106-.16a36.226 36.226 0 0 0-.143-1.303c-.019-.128.017-.162.129-.185.275-.076.55-.152.819-.238.31-.11.42-.326.326-.659-.428-1.485-.852-2.986-1.28-4.471-.12-.402-.23-.81-.352-1.21a.648.648 0 0 0-.712-.49c-.342.031-.657.158-.974.257-.142.041-.202.034-.249-.12a11.893 11.893 0 0 0-.325-1.114c-.033-.105.047-.11.116-.136.486-.142.972-.284 1.454-.41.306-.093.608-.17.92-.254.074-.015.116-.04.083-.145-.157-.63-.356-1.263-.533-1.882-.035-.132-.015-.17.117-.206.339-.084.656-.184.989-.28.126-.045.166.001.205.117.171.608.347 1.2.518 1.808.033.106.061.13.167.097l.776-.24c.105-.033.124-.072.091-.177-.181-.602-.346-1.2-.517-1.808-.033-.105-.026-.165.096-.194.339-.085.672-.18 1.01-.291.126-.046.166 0 .205.116.171.608.358 1.22.519 1.835.029.122.067.14.195.122.692-.122 1.387-.19 2.084-.039.148.04.301.09.449.13.038.018.077.038.11.046.039.02.077.039.106.064.067.044.14.099.207.143.074.055.142.126.216.181.012.02.034.036.046.056.028.026.046.057.069.071.012.021.024.042.046.057.247.356.395.756.511 1.173.068.502.032.966-.237 1.412-.113.19-.253.354-.436.543.816-.028 1.536.139 2.062.763.012.02.04.046.053.067.024.041.052.067.076.108l.132.229c.03.052.054.093.074.151.013.048.031.079.045.127.012.02.024.041.026.068.022.015.036.062.05.11zm-3.47 2.654a2.97 2.97 0 0 0 .471-.313c.403-.357.626-.763.48-1.33-.152-.55-.534-.828-1.072-.92a2.943 2.943 0 0 0-.84-.013c-.705.074-1.37.291-2.05.504-.085.022-.104.06-.072.14.263.887.515 1.78.768 2.673.025.069.037.09.112.074.745-.222 1.518-.419 2.204-.815zm-1.649-4.008c.152-.074.285-.179.408-.277.564-.464.62-1.231.127-1.75-.31-.32-.706-.382-1.114-.368-.628.016-1.224.207-1.816.383-.21.066-.21.066-.144.277.212.75.423 1.502.645 2.246.02.058.004.15.126.122.608-.171 1.212-.326 1.768-.633z"/>
    </g>
</svg>
