<svg xmlns="http://www.w3.org/2000/svg" xmlns:xlink="http://www.w3.org/1999/xlink" width="70" height="15" viewBox="0 0 70 15">
    <defs>
        <path id="a" d="M.007.062h16.908v10.69H.007z"/>
        <path id="c" d="M.053.053H47.08v15.173H.053z"/>
    </defs>
    <g fill="none" fill-rule="evenodd">
        <g transform="translate(0 4.473)">
            <mask id="b" fill="#fff">
                <use xlink:href="#a"/>
            </mask>
            <path fill="#0078AA" d="M4.52 10.76C2.23 10.76 0 9.12 0 5.4 0 1.683 2.231.061 4.52.061c1.125 0 2.002.287 2.631.706l-.686 1.507c-.42-.305-1.05-.496-1.678-.496-1.373 0-2.632 1.087-2.632 3.604 0 2.517 1.297 3.623 2.632 3.623.629 0 1.258-.19 1.678-.495l.686 1.544c-.648.439-1.506.706-2.631.706M12.396 1.72c-1.621 0-2.422 1.45-2.422 3.662 0 2.212.8 3.68 2.422 3.68 1.62 0 2.422-1.468 2.422-3.68s-.801-3.661-2.422-3.661zm0 9.04c-2.918 0-4.52-2.308-4.52-5.359s1.602-5.34 4.52-5.34c2.917 0 4.52 2.289 4.52 5.34 0 3.051-1.603 5.359-4.52 5.359z" mask="url(#b)"/>
        </g>
        <path fill="#0078AA" d="M18.67 15.023h2.097V4.745H18.67v10.278zm1.048-12.147c-.686 0-1.24-.534-1.24-1.183 0-.648.554-1.182 1.24-1.182.687 0 1.24.534 1.24 1.182 0 .649-.553 1.183-1.24 1.183z"/>
        <g transform="translate(22.85)">
            <mask id="d" fill="#fff">
                <use xlink:href="#c"/>
            </mask>
            <path fill="#0078AA" d="M6.175 15.023V8.158c0-1.201-.725-1.945-2.155-1.945-.763 0-1.468.134-1.888.305v8.505H.053V5.26c1.03-.42 2.346-.725 3.948-.725 2.88 0 4.271 1.259 4.271 3.433v7.055H6.175M14.07 6.213c-.573 0-1.24.134-1.64.343v6.751c.305.134.896.267 1.487.267 1.659 0 2.88-1.144 2.88-3.776 0-2.25-1.068-3.585-2.727-3.585zm-.267 9.02c-1.335 0-2.651-.324-3.452-.725V.053h2.079v4.959c.495-.23 1.296-.42 2.002-.42 2.65 0 4.443 1.907 4.443 5.054 0 3.87-2.002 5.587-5.072 5.587zM26.255 9.855c-2.098.115-4.195.286-4.195 2.117 0 1.087.839 1.755 2.422 1.755.667 0 1.45-.115 1.773-.267V9.855zm-1.716 5.378c-2.956 0-4.443-1.201-4.443-3.223 0-2.86 3.05-3.375 6.16-3.547v-.648c0-1.297-.859-1.754-2.175-1.754-.972 0-2.155.305-2.841.629l-.534-1.43c.82-.363 2.212-.725 3.585-.725 2.46 0 3.948.953 3.948 3.49v6.483c-.744.4-2.25.725-3.7.725zM32.93 15.233c-1.202 0-2.46-.324-3.204-.725l.705-1.601c.534.324 1.66.667 2.441.667 1.126 0 1.87-.553 1.87-1.411 0-.935-.783-1.297-1.831-1.678-1.374-.515-2.918-1.145-2.918-3.07 0-1.698 1.316-2.88 3.604-2.88 1.24 0 2.27.305 2.994.725l-.648 1.449c-.458-.286-1.373-.61-2.117-.61-1.087 0-1.697.572-1.697 1.315 0 .935.762 1.26 1.773 1.64 1.43.534 3.013 1.126 3.013 3.128 0 1.85-1.411 3.051-3.986 3.051M42.789 6.06c-1.602 0-2.651 1.221-2.69 3.357l4.978-.687c-.02-1.792-.915-2.67-2.288-2.67zm4.271 3.776l-6.827.954c.21 1.85 1.411 2.784 3.147 2.784 1.03 0 2.136-.248 2.841-.63l.61 1.564c-.8.42-2.174.725-3.585.725-3.242 0-5.053-2.078-5.053-5.359 0-3.146 1.754-5.34 4.634-5.34 2.67 0 4.252 1.755 4.252 4.52 0 .248 0 .515-.019.782z" mask="url(#d)"/>
        </g>
    </g>
</svg>
