<svg xmlns="http://www.w3.org/2000/svg" xmlns:xlink="http://www.w3.org/1999/xlink" width="120" height="120" viewBox="0 0 120 120">
    <defs>
        <path id="a" d="M103.684 51.824c0 28.316-23.035 51.354-51.354 51.354-28.313 0-51.348-23.039-51.348-51.354C.982 23.511 24.018.475 52.33.475c28.318 0 51.354 23.036 51.354 51.349z"/>
        <linearGradient id="c" x1=".001%" x2="100.008%" y1="49.993%" y2="49.993%">
            <stop offset=".56%" stop-color="#6176B9"/>
            <stop offset="69.1%" stop-color="#394A9F"/>
        </linearGradient>
        <linearGradient id="d" x1=".005%" x2="100.001%" y1="49.997%" y2="49.997%">
            <stop offset=".56%" stop-color="#6176B9"/>
            <stop offset="69.1%" stop-color="#394A9F"/>
        </linearGradient>
    </defs>
    <g fill="none" fill-rule="evenodd" transform="translate(1)">
        <circle cx="57.5" cy="57.5" r="57.5" fill="#FFF"/>
        <g transform="translate(1 2)">
            <circle cx="58.332" cy="57.966" r="51.15" fill="#DE5833"/>
            <circle cx="58.331" cy="57.965" r="57.5" stroke="#DE5833" stroke-width="5"/>
        </g>
        <g transform="translate(7 8)">
            <mask id="b" fill="#fff">
                <use xlink:href="#a"/>
            </mask>
            <g mask="url(#b)">
                <path fill="#D5D7D8" d="M73.293 128.158c-1.801-8.285-12.262-27.039-16.23-34.969-3.965-7.932-7.938-19.11-6.129-26.322.328-1.312-3.436-11.308-2.354-12.015 8.416-5.489 10.632.599 14.002-1.862 1.734-1.273 4.09 1.047 4.689-1.06 2.158-7.567-3.006-20.76-8.771-26.526-1.885-1.879-4.771-3.06-8.03-3.687-1.254-1.713-3.275-3.36-6.138-4.879-3.188-1.697-10.121-3.938-13.717-4.535-2.492-.41-3.055.287-4.119.461.992.088 5.699 2.414 6.615 2.549-.916.619-3.607-.028-5.324.742-.865.392-1.512 1.877-1.506 2.58 4.91-.496 12.574-.016 17.1 2-3.602.41-9.08.867-11.436 2.105-6.848 3.608-9.873 12.035-8.07 22.133 1.804 10.075 9.738 46.85 12.262 59.129 2.525 12.264-5.408 20.189-10.455 22.354l5.408.363-1.801 3.967c6.484.719 13.695-1.439 13.695-1.439-1.438 3.965-11.176 5.412-11.176 5.412s4.691 1.438 12.258-1.447c7.578-2.883 12.263-4.688 12.263-4.688l3.604 9.373 6.854-6.847 2.885 7.211c.014-.001 5.424-1.808 3.621-10.103z"/>
                <path fill="#FFF" d="M75.471 126.477c-1.795-8.289-12.256-27.043-16.228-34.979-3.97-7.936-7.935-19.112-6.13-26.321.335-1.309.341-6.668 1.429-7.379 8.411-5.494 7.812-.184 11.187-2.645 1.74-1.271 3.133-2.806 3.738-4.912 2.164-7.572-3.006-20.76-8.773-26.529-1.879-1.879-4.768-3.062-8.023-3.686-1.252-1.718-3.271-3.361-6.13-4.882-5.391-2.862-12.074-4.006-18.266-2.883.99.09 3.256 2.138 4.168 2.273-1.381.936-5.053.815-5.029 2.896 4.916-.492 10.303.285 14.834 2.297-3.602.41-6.955 1.3-9.311 2.543-6.854 3.603-8.656 10.812-6.854 20.914 1.807 10.097 9.742 46.873 12.256 59.126 2.527 12.26-5.402 20.188-10.449 22.354l5.408.359-1.801 3.973c6.484.721 13.695-1.439 13.695-1.439-1.438 3.974-11.176 5.406-11.176 5.406s4.686 1.439 12.258-1.445c7.581-2.883 12.269-4.688 12.269-4.688l3.604 9.373L69 129.35l2.891 7.215c-.016.007 5.388-1.797 3.58-10.088z"/>
                <path fill="#2D4F8E" d="M34.021 43.691a3.785 3.785 0 0 1 3.789-3.787 3.785 3.785 0 0 1 3.785 3.787 3.784 3.784 0 0 1-3.785 3.786 3.783 3.783 0 0 1-3.789-3.786z"/>
                <path fill="#FFF" d="M38.507 42.429a.982.982 0 1 1 1.964 0 .985.985 0 0 1-.984.984.984.984 0 0 1-.98-.984z"/>
                <path fill="#2D4F8E" d="M59.867 41.445a3.255 3.255 0 0 1 3.252-3.25 3.254 3.254 0 1 1-3.252 3.25z"/>
                <path fill="#FFF" d="M63.725 40.363c0-.463.379-.843.838-.843.479 0 .846.38.846.843a.834.834 0 0 1-.846.842.84.84 0 0 1-.838-.842z"/>
                <path fill="url(#c)" d="M15.886 21.718s-2.854-1.291-5.629.453c-2.77 1.742-2.668 3.523-2.668 3.523s-1.473-3.283 2.453-4.892c3.93-1.609 5.844.916 5.844.916z" transform="translate(23 11)"/>
                <path fill="url(#d)" d="M42.078 21.458s-2.051-1.172-3.643-1.152c-3.271.043-4.162 1.488-4.162 1.488s.549-3.445 4.732-2.754c2.268.377 3.073 2.418 3.073 2.418z" transform="translate(23 11)"/>
            </g>
        </g>
        <path fill="#FDD20A" d="M56.4 66.295c.379-2.291 6.299-6.625 10.491-6.887 4.201-.265 5.51-.205 9.01-1.043 3.51-.838 12.535-3.088 15.033-4.242 2.504-1.156 13.104.572 5.631 4.738-3.232 1.809-11.943 5.131-18.172 6.987-6.219 1.861-9.99-1.776-12.06 1.281-1.646 2.432-.334 5.762 7.099 6.453 10.037.93 19.66-4.521 20.719-1.625 1.064 2.895-8.625 6.508-14.525 6.623-5.893.111-17.771-3.896-19.555-5.137-1.786-1.238-4.165-4.13-3.671-7.148z"/>
        <g>
            <path fill="#65BC46" d="M60.943 96.592s-14.102-7.521-14.332-4.47c-.238 3.056 0 15.509 1.643 16.451 1.646.938 13.396-6.108 13.396-6.108l-.707-5.873zM66.346 96.118s9.635-7.285 11.754-6.815c2.111.479 2.582 15.51.701 16.229-1.881.69-12.908-3.813-12.908-3.813l.453-5.601z"/>
            <path fill="#43A244" d="M57.529 97.389c0 4.932-.709 7.049 1.41 7.519 2.109.473 6.104 0 7.518-.938 1.41-.938.232-7.279-.232-8.465-.477-1.174-8.696-.232-8.696 1.884z"/>
            <path fill="#65BC46" d="M58.426 96.292c0 4.933-.707 7.05 1.409 7.519 2.106.479 6.104 0 7.519-.938 1.41-.941.231-7.279-.236-8.466-.473-1.173-8.692-.227-8.692 1.885z"/>
        </g>
    </g>
</svg>
