<svg xmlns="http://www.w3.org/2000/svg" xmlns:xlink="http://www.w3.org/1999/xlink" width="185" height="147" viewBox="0 0 185 147">
    <defs>
        <path id="a" d="M93.316 46.642c0 25.484-20.732 46.218-46.219 46.218C21.615 92.86.884 72.125.884 46.642.884 21.16 21.616.427 47.097.427c25.486 0 46.219 20.733 46.219 46.215z"/>
        <linearGradient id="c" x1=".001%" x2="100.008%" y1="49.993%" y2="49.993%">
            <stop offset=".56%" stop-color="#6176B9"/>
            <stop offset="69.1%" stop-color="#394A9F"/>
        </linearGradient>
        <linearGradient id="d" x1=".005%" x2="100.001%" y1="49.997%" y2="49.997%">
            <stop offset=".56%" stop-color="#6176B9"/>
            <stop offset="69.1%" stop-color="#394A9F"/>
        </linearGradient>
    </defs>
    <g fill="none" fill-rule="evenodd" transform="translate(0 2)">
        <g fill="#230545">
            <path d="M.508 143.617v-22.139H8.53c7.638 0 11.117 5.611 11.117 10.828 0 5.63-3.437 11.306-11.117 11.306l-8.022.005zm2.55-2.551H8.53c5.918 0 8.566-4.414 8.566-8.79 0-4.02-2.68-8.343-8.566-8.343H3.058v17.133zM29.75 143.871c-4.1 0-6.748-2.823-6.748-7.193v-8.595h2.391v8.564c0 3.146 1.831 5.026 4.898 5.026 2.876-.032 4.962-2.24 4.962-5.25v-8.34h2.391v15.534h-2.172l-.137-2.702-.37.466c-1.29 1.62-3.044 2.459-5.216 2.49zM49.307 143.904c-4.04 0-8.118-2.494-8.118-8.054 0-4.819 3.263-8.053 8.118-8.053 2.125 0 3.993.758 5.552 2.252l-1.503 1.559c-1.058-.987-2.503-1.549-3.985-1.549-3.39 0-5.759 2.381-5.759 5.79 0 4.001 2.877 5.795 5.728 5.795 1.604 0 3.06-.573 4.115-1.612l1.563 1.562c-1.572 1.532-3.493 2.31-5.71 2.31zM68.115 143.617l-7.592-7.592v7.592h-2.36V121.51h2.36v13.371l6.636-6.8h3.093l-7.32 7.321 8.214 8.182v.032zM74.085 143.617v-22.139h8.022c7.638 0 11.119 5.611 11.119 10.828 0 5.63-3.434 11.306-11.119 11.306l-8.022.005zm2.55-2.551h5.472c5.917 0 8.567-4.414 8.567-8.79 0-4.02-2.681-8.343-8.567-8.343h-5.472v17.133zM103.326 143.871c-4.1 0-6.746-2.823-6.746-7.193v-8.595h2.39v8.564c0 3.146 1.83 5.026 4.897 5.026 2.87-.032 4.963-2.24 4.963-5.25v-8.34h2.39v15.534h-2.174l-.135-2.702-.371.466c-1.289 1.62-3.043 2.459-5.214 2.49zM122.885 143.904c-4.04 0-8.119-2.494-8.119-8.054 0-4.819 3.263-8.053 8.12-8.053 2.122 0 3.993.758 5.55 2.252l-1.503 1.559a5.88 5.88 0 0 0-3.985-1.549c-3.393 0-5.758 2.381-5.758 5.79 0 4.001 2.877 5.795 5.727 5.795 1.602 0 3.06-.573 4.114-1.612l1.518 1.52-.08.081.045.044c-1.558 1.476-3.45 2.227-5.629 2.227zM141.692 143.617l-7.592-7.592v7.592h-2.359V121.51h2.359v13.371l6.636-6.8h3.094l-7.32 7.321 8.213 8.182v.032zM157.247 144.031c-8.511 0-11.53-6.075-11.53-11.276-.02-3.388 1.13-6.412 3.225-8.52 2.064-2.074 4.926-3.17 8.273-3.17 3.03 0 5.883 1.15 8.044 3.243l-1.444 1.682c-1.7-1.587-4.216-2.568-6.597-2.568-6.168 0-8.98 4.838-8.98 9.33 0 4.418 2.793 8.886 9.045 8.886a9.293 9.293 0 0 0 6.13-2.266l.083-.065v-5.455h-6.956v-2.232h9.248v8.682c-2.389 2.52-5.171 3.73-8.54 3.73zM176.808 143.904c-4.67 0-8.054-3.374-8.054-8.023 0-4.721 3.393-8.15 8.054-8.15 4.76 0 8.083 3.351 8.083 8.15.001 4.65-3.399 8.023-8.083 8.023zm.03-14.005c-3.355 0-5.694 2.46-5.694 5.981 0 3.356 2.381 5.793 5.664 5.793 3.338 0 5.693-2.382 5.725-5.791 0-3.468-2.394-5.983-5.696-5.983z"/>
        </g>
        <circle cx="93.15" cy="51.75" r="51.75" fill="#FFF"/>
        <g transform="translate(40.5)">
            <circle cx="52.499" cy="52.169" r="46.035" fill="#DE5833"/>
            <circle cx="52.498" cy="52.168" r="51.75" stroke="#DE5833" stroke-width="3.6"/>
        </g>
        <g transform="translate(45.9 5.4)">
            <mask id="b" fill="#fff">
                <use xlink:href="#a"/>
            </mask>
            <g mask="url(#b)">
                <path fill="#D5D7D8" d="M65.964 115.342c-1.621-7.456-11.036-24.335-14.607-31.472-3.569-7.139-7.145-17.199-5.516-23.69.295-1.18-3.093-10.177-2.119-10.813 7.574-4.94 9.569.539 12.602-1.676 1.56-1.146 3.68.942 4.22-.954 1.942-6.81-2.706-18.684-7.894-23.873-1.697-1.692-4.294-2.754-7.227-3.319-1.129-1.541-2.948-3.024-5.524-4.39-2.87-1.528-9.11-3.545-12.346-4.082-2.242-.37-2.749.258-3.707.415.893.079 5.13 2.172 5.954 2.294-.825.557-3.246-.026-4.792.667-.778.353-1.36 1.69-1.355 2.322 4.419-.446 11.316-.014 15.39 1.8-3.242.37-8.172.78-10.293 1.895-6.163 3.247-8.885 10.831-7.263 19.92 1.624 9.067 8.765 42.165 11.036 53.216 2.273 11.037-4.867 18.17-9.41 20.118l4.868.327-1.62 3.57c5.835.647 12.325-1.295 12.325-1.295-1.295 3.569-10.059 4.871-10.059 4.871s4.222 1.294 11.032-1.302c6.82-2.595 11.037-4.22 11.037-4.22l3.244 8.436 6.168-6.162 2.597 6.49c.012-.001 4.881-1.627 3.259-9.093z"/>
                <path fill="#FFF" d="M67.924 113.83c-1.616-7.46-11.03-24.34-14.605-31.482-3.573-7.142-7.142-17.2-5.517-23.689.301-1.178.307-6 1.286-6.64 7.57-4.945 7.03-.166 10.068-2.381 1.566-1.144 2.82-2.526 3.364-4.421 1.948-6.815-2.705-18.684-7.895-23.876-1.692-1.691-4.292-2.756-7.221-3.318-1.127-1.546-2.944-3.025-5.517-4.393-4.852-2.576-10.867-3.606-16.44-2.595.891.08 2.93 1.924 3.752 2.046-1.243.842-4.548.733-4.526 2.606 4.424-.443 9.272.256 13.35 2.067-3.242.37-6.26 1.17-8.38 2.289-6.168 3.243-7.79 9.73-6.168 18.823 1.626 9.087 8.767 42.185 11.03 53.213 2.274 11.034-4.862 18.17-9.404 20.119l4.867.323-1.62 3.575c5.835.65 12.325-1.295 12.325-1.295-1.294 3.577-10.059 4.866-10.059 4.866s4.218 1.295 11.033-1.3a3174.26 3174.26 0 0 0 11.042-4.22l3.243 8.436 6.168-6.168 2.602 6.493c-.015.007 4.85-1.617 3.222-9.079z"/>
                <path fill="#2D4F8E" d="M30.619 39.322a3.406 3.406 0 0 1 3.41-3.408 3.407 3.407 0 0 1 3.406 3.408 3.405 3.405 0 0 1-3.406 3.407 3.404 3.404 0 0 1-3.41-3.407z"/>
                <path fill="#FFF" d="M34.656 38.186a.883.883 0 1 1 1.768 0 .886.886 0 0 1-.886.886.885.885 0 0 1-.882-.886z"/>
                <path fill="#2D4F8E" d="M53.88 37.3a2.93 2.93 0 0 1 2.927-2.925A2.929 2.929 0 1 1 53.88 37.3z"/>
                <path fill="#FFF" d="M57.352 36.327a.76.76 0 0 1 .755-.759c.43 0 .761.342.761.759a.75.75 0 0 1-.761.757.756.756 0 0 1-.755-.757z"/>
                <path fill="url(#c)" d="M14.297 19.546s-2.568-1.162-5.066.408c-2.493 1.568-2.4 3.17-2.4 3.17s-1.327-2.954 2.207-4.402c3.537-1.448 5.26.824 5.26.824z" transform="translate(20.7 9.9)"/>
                <path fill="url(#d)" d="M37.87 19.312s-1.846-1.055-3.279-1.037c-2.943.04-3.745 1.34-3.745 1.34s.494-3.1 4.258-2.479c2.042.34 2.766 2.176 2.766 2.176z" transform="translate(20.7 9.9)"/>
            </g>
        </g>
        <path fill="#FDD20A" d="M90.36 57.865c.341-2.061 5.67-5.962 9.442-6.198 3.78-.238 4.959-.184 8.109-.939 3.159-.754 11.281-2.779 13.53-3.817 2.253-1.04 11.793.514 5.067 4.264-2.908 1.628-10.748 4.618-16.354 6.288-5.597 1.675-8.991-1.598-10.854 1.153-1.482 2.189-.3 5.186 6.389 5.808 9.033.837 17.694-4.07 18.647-1.463.957 2.606-7.763 5.857-13.073 5.961-5.303.1-15.994-3.506-17.6-4.623-1.607-1.115-3.748-3.717-3.303-6.434z"/>
        <g>
            <path fill="#65BC46" d="M94.449 84.233s-12.692-6.77-12.9-4.023c-.213 2.75 0 13.958 1.48 14.806 1.481.844 12.056-5.498 12.056-5.498l-.636-5.285zM99.311 83.806s8.672-6.556 10.579-6.133c1.9.43 2.324 13.959.63 14.606-1.692.62-11.616-3.432-11.616-3.432l.407-5.04z"/>
            <path fill="#43A244" d="M91.376 84.95c0 4.439-.638 6.344 1.27 6.767 1.897.426 5.493 0 6.765-.844 1.27-.844.21-6.551-.209-7.619-.429-1.056-7.826-.208-7.826 1.696z"/>
            <path fill="#65BC46" d="M92.183 83.963c0 4.44-.636 6.345 1.268 6.767 1.896.431 5.494 0 6.768-.844 1.269-.847.207-6.551-.213-7.62-.426-1.055-7.823-.204-7.823 1.697z"/>
        </g>
    </g>
</svg>
